<?xml version="1.0" encoding="UTF-8" standalone="no"?>
<!DOCTYPE svg PUBLIC "-//W3C//DTD SVG 1.1//EN" "http://www.w3.org/Graphics/SVG/1.1/DTD/svg11.dtd">
<svg xmlns="http://www.w3.org/2000/svg" version="1.1" viewBox="0 0 500 500">
<g stroke-width="2.00" fill="none" stroke-linecap="butt">
<path stroke="#60b3e0" stroke-opacity="0.910" vector-effect="non-scaling-stroke" d="
  M 303.21 222.00
  L 303.20 219.43"
/>
<path stroke="#60b3e0" stroke-opacity="0.910" vector-effect="non-scaling-stroke" d="
  M 296.00 222.54
  L 273.00 222.21"
/>
</g>
<path fill="#8fd8ff" d="
  M 303.21 222.00
  L 303.20 219.43
  L 309.19 218.72
  Q 309.64 218.67 309.22 218.49
  Q 302.44 215.68 294.25 214.75
  Q 287.75 214.01 282.24 216.39
  Q 281.96 216.52 281.73 216.48
  Q 281.21 216.41 281.43 216.00
  Q 281.53 215.83 281.77 215.71
  Q 289.46 212.06 298.02 213.10
  Q 305.68 214.03 311.69 216.06
  Q 319.24 218.62 324.52 219.62
  Q 335.29 221.67 344.39 216.81
  Q 348.94 214.39 351.04 210.99
  Q 353.45 207.06 353.30 202.01
  Q 353.18 197.68 352.25 193.11
  Q 351.72 190.52 353.73 192.23
  Q 360.16 197.72 361.01 205.34
  Q 361.83 212.70 357.31 218.67
  Q 352.31 225.27 343.00 227.00
  Q 338.08 227.91 334.00 227.28
  Q 325.90 226.03 318.04 222.28
  A 0.69 0.68 -77.2 0 0 317.06 222.90
  L 317.00 285.28
  A 0.73 0.73 -89.6 0 1 316.27 286.00
  L 304.15 286.00
  A 0.59 0.58 -2.1 0 1 303.56 285.46
  Q 303.23 281.38 303.30 278.00
  Q 303.89 250.00 303.21 222.00
  Z"
/>
<path fill="#8fd8ff" d="
  M 334.63 211.68
  Q 341.03 210.78 346.73 207.27
  Q 347.11 207.04 347.44 206.94
  Q 349.12 206.48 347.44 208.19
  Q 337.10 218.73 322.25 216.00
  Q 317.69 215.16 310.31 212.19
  Q 303.42 209.41 296.99 209.00
  Q 291.41 208.65 283.75 211.08
  Q 276.81 213.29 270.38 216.41
  Q 267.37 217.87 269.68 215.45
  Q 280.23 204.38 295.50 202.75
  Q 299.93 202.28 305.13 203.78
  Q 306.41 204.15 313.58 207.24
  Q 317.80 209.05 322.18 210.37
  Q 329.15 212.45 334.63 211.68
  Z"
/>
<path fill="#687daf" d="
  M 65.56 238.44
  L 78.32 238.67
  A 0.54 0.51 0.6 0 1 78.85 239.18
  L 78.85 249.06
  A 0.56 0.52 -1.1 0 1 78.31 249.58
  L 65.69 249.92
  A 0.53 0.52 -1.1 0 0 65.18 250.44
  L 65.01 284.79
  A 0.99 0.97 87.7 0 1 64.13 285.76
  Q 58.25 286.34 52.05 285.73
  A 0.90 0.89 -87.2 0 1 51.25 284.84
  L 51.19 250.31
  A 0.51 0.50 90.0 0 0 50.69 249.80
  L 42.93 249.75
  A 0.91 0.86 0.3 0 1 42.02 248.88
  L 42.16 239.19
  A 0.55 0.52 -1.1 0 1 42.69 238.67
  L 50.57 238.33
  A 0.57 0.55 -88.8 0 0 51.10 237.81
  Q 51.67 230.54 52.00 229.00
  Q 53.18 223.47 57.62 220.41
  Q 60.90 218.15 66.83 217.52
  Q 72.32 216.94 78.47 217.33
  A 1.04 0.98 2.1 0 1 79.45 218.32
  L 79.30 227.50
  A 0.55 0.50 1.1 0 1 78.74 227.99
  Q 71.43 227.89 70.00 228.25
  Q 64.96 229.51 64.96 234.52
  Q 64.96 235.25 64.91 236.47
  Q 64.88 237.21 64.98 237.95
  A 0.60 0.57 -3.3 0 0 65.56 238.44
  Z"
/>
<path fill="#2686bb" fill-opacity="0.816" d="
  M 303.20 219.43
  L 303.21 222.00
  Q 299.56 221.48 296.00 222.54
  L 273.00 222.21
  Q 278.27 221.07 283.52 219.84
  Q 293.35 217.56 303.20 219.43
  Z"
/>
<path fill="#687daf" d="
  M 232.59 241.44
  L 233.07 219.82
  A 0.58 0.55 87.8 0 1 233.56 219.26
  Q 239.75 218.59 245.93 219.26
  A 0.57 0.56 2.8 0 1 246.44 219.82
  L 246.75 284.79
  A 0.97 0.91 89.4 0 1 245.86 285.76
  L 237.54 285.99
  A 1.42 1.15 76.2 0 1 236.36 285.10
  L 234.75 281.18
  A 0.41 0.37 -31.9 0 0 234.13 281.07
  Q 225.57 288.34 214.75 287.00
  Q 201.04 285.30 196.06 273.69
  Q 192.11 264.47 194.69 254.69
  Q 196.29 248.63 200.37 244.41
  Q 204.19 240.46 210.05 238.52
  Q 221.34 234.79 232.14 241.67
  Q 232.58 241.94 232.59 241.44
  Z
  M 219.6898 275.4302
  A 13.29 13.15 92.2 0 0 233.3403 262.6548
  A 13.29 13.15 92.2 0 0 220.7102 248.8698
  A 13.29 13.15 92.2 0 0 207.0597 261.6452
  A 13.29 13.15 92.2 0 0 219.6898 275.4302
  Z"
/>
<path fill="#8fd8ff" d="
  M 273.00 222.21
  L 296.00 222.54
  L 296.00 234.84
  A 0.67 0.66 0.0 0 1 295.33 235.50
  L 271.56 235.56
  A 0.82 0.81 -90.0 0 0 270.75 236.38
  L 270.75 251.00
  A 0.50 0.50 0.0 0 0 271.25 251.50
  L 293.25 251.50
  A 0.50 0.50 0.0 0 1 293.75 252.00
  L 293.75 263.36
  A 0.88 0.86 -89.7 0 1 292.88 264.24
  L 271.31 264.08
  A 0.49 0.48 0.6 0 0 270.81 264.56
  L 270.75 285.21
  A 0.79 0.78 -90.0 0 1 269.97 286.00
  L 257.07 286.00
  A 0.62 0.62 0.0 0 1 256.45 285.38
  Q 256.11 255.35 256.25 225.99
  Q 256.25 225.85 256.14 224.52
  Q 255.94 221.88 259.00 222.50
  Q 261.49 223.01 273.00 222.21
  Z"
/>
<path fill="#687daf" d="
  M 151.61 242.76
  A 0.54 0.48 -28.2 0 0 152.43 242.96
  Q 158.76 238.10 165.62 237.41
  Q 172.82 236.69 178.87 240.36
  Q 186.33 244.89 187.25 254.75
  Q 188.35 266.55 187.58 285.07
  A 0.58 0.56 88.3 0 1 187.08 285.62
  Q 181.63 286.26 174.86 285.93
  A 0.89 0.89 1.0 0 1 174.01 285.05
  Q 173.88 271.25 173.75 258.75
  Q 173.69 253.22 169.80 250.62
  Q 166.42 248.37 161.88 249.33
  Q 154.55 250.88 154.00 259.50
  Q 153.63 265.34 153.69 285.19
  A 0.54 0.51 89.5 0 1 153.19 285.73
  L 140.94 285.96
  A 0.73 0.68 89.6 0 1 140.25 285.23
  L 140.25 239.27
  A 0.72 0.71 89.6 0 1 140.95 238.55
  L 149.74 238.51
  A 0.98 0.88 81.4 0 1 150.61 239.23
  L 151.61 242.76
  Z"
/>
<path fill="#687daf" d="
  M 117.63 281.35
  Q 112.21 286.33 105.75 287.00
  Q 90.27 288.61 84.92 276.22
  Q 83.27 272.39 82.99 265.52
  Q 82.49 252.92 82.78 239.37
  A 0.88 0.87 -89.3 0 1 83.65 238.51
  L 95.66 238.55
  A 0.88 0.86 -89.7 0 1 96.52 239.44
  Q 96.35 252.13 96.65 263.66
  Q 96.77 268.69 97.79 270.68
  Q 99.03 273.13 101.57 274.39
  Q 103.75 275.47 106.57 275.23
  Q 112.49 274.72 114.78 269.83
  Q 115.98 267.28 116.13 260.98
  Q 116.38 250.64 116.23 239.38
  A 0.82 0.81 89.3 0 1 117.03 238.55
  L 129.04 238.50
  A 0.72 0.71 90.0 0 1 129.75 239.22
  L 129.75 285.10
  A 0.58 0.58 86.7 0 1 129.24 285.68
  Q 124.48 286.32 120.18 285.64
  A 0.89 0.66 80.5 0 1 119.59 285.07
  L 118.24 281.44
  A 0.39 0.35 -33.0 0 0 117.63 281.35
  Z"
/>
<path fill="#8fd8ff" d="
  M 432.10 266.72
  L 442.01 239.16
  A 0.76 0.73 -80.0 0 1 442.69 238.66
  L 455.94 238.52
  A 0.47 0.46 -79.9 0 1 456.37 239.15
  L 439.49 284.98
  A 1.57 1.55 -79.7 0 1 438.03 286.00
  L 427.07 286.00
  A 1.15 1.14 79.6 0 1 426.00 285.26
  L 415.74 257.48
  Q 415.50 256.83 415.25 257.49
  L 404.81 285.48
  A 0.79 0.79 -79.9 0 1 404.07 286.00
  L 392.97 286.00
  A 1.55 1.54 -10.0 0 1 391.52 284.99
  L 374.67 239.22
  A 0.38 0.36 79.3 0 1 375.00 238.71
  L 388.31 238.65
  A 0.77 0.70 79.5 0 1 388.99 239.17
  L 398.66 266.47
  Q 399.05 267.59 399.46 266.48
  L 409.63 239.13
  A 0.96 0.94 -79.8 0 1 410.52 238.50
  L 420.46 238.50
  A 1.02 0.97 79.1 0 1 421.38 239.15
  L 431.75 266.73
  Q 431.93 267.20 432.10 266.72
  Z"
/>
<path fill="#8fd8ff" d="
  M 326.25 261.82
  Q 325.83 261.55 325.53 261.16
  Q 325.24 260.80 325.23 260.27
  Q 325.21 257.82 326.50 255.00
  Q 330.03 247.25 336.59 243.31
  Q 342.71 239.62 350.86 239.89
  Q 366.30 240.40 372.97 256.15
  Q 373.59 257.62 375.71 256.51
  Q 377.13 255.77 376.70 257.30
  L 374.18 266.20
  Q 373.88 267.28 373.09 266.47
  Q 370.17 263.44 367.27 260.23
  Q 365.90 258.71 368.29 258.50
  A 0.86 0.86 -14.6 0 0 369.00 257.29
  Q 364.37 247.07 354.74 244.82
  Q 346.49 242.89 339.26 247.03
  Q 331.75 251.34 329.19 260.76
  Q 329.03 261.36 328.99 262.27
  Q 328.87 265.47 326.95 262.49
  Q 326.72 262.13 326.25 261.82
  Z"
/>
<path fill="#8fd8ff" d="
  M 346.69 277.23
  Q 341.89 276.28 340.30 271.10
  A 0.46 0.46 -8.8 0 1 340.74 270.50
  L 343.75 270.50
  A 4.06 1.59 52.3 0 1 346.25 272.00
  Q 348.25 274.05 350.79 273.52
  Q 352.72 273.12 353.35 271.45
  Q 353.96 269.82 352.62 268.55
  Q 351.93 267.91 350.18 267.36
  Q 346.57 266.23 343.81 264.69
  Q 340.59 262.89 340.88 258.99
  Q 341.27 253.48 346.76 252.50
  A 0.52 0.52 -9.6 0 0 347.18 251.91
  Q 346.77 249.25 349.03 249.85
  Q 349.50 249.97 349.99 249.85
  Q 352.11 249.33 351.88 251.69
  A 0.56 0.56 -80.6 0 0 352.31 252.29
  Q 355.36 252.97 356.81 254.94
  Q 360.43 259.83 353.68 258.70
  A 1.15 1.15 -10.7 0 1 352.90 258.17
  Q 351.36 255.61 348.90 255.94
  Q 347.35 256.15 346.49 257.20
  Q 345.64 258.23 346.24 259.53
  Q 346.62 260.36 347.81 260.87
  Q 350.44 261.98 353.09 263.04
  Q 356.55 264.42 357.66 266.00
  Q 359.39 268.45 358.57 271.91
  Q 357.60 276.03 353.41 276.75
  Q 351.48 277.08 352.00 279.24
  A 0.90 0.89 -13.0 0 1 351.32 280.32
  Q 346.73 281.33 347.11 277.80
  A 0.52 0.51 8.9 0 0 346.69 277.23
  Z"
/>
<path fill="#8fd8ff" d="
  M 324.94 272.63
  L 322.98 273.01
  A 0.36 0.35 -0.2 0 1 322.56 272.61
  Q 323.53 267.36 325.19 263.36
  A 0.41 0.41 -56.8 0 1 325.85 263.22
  L 332.31 269.69
  Q 333.93 271.30 331.94 270.94
  Q 330.92 270.75 330.31 271.35
  A 0.81 0.69 57.0 0 0 330.20 272.20
  Q 334.72 282.37 344.17 284.68
  Q 353.15 286.87 360.71 282.04
  Q 368.48 277.08 370.27 266.17
  A 0.33 0.33 -67.9 0 1 370.78 265.95
  Q 374.10 268.19 373.89 270.90
  Q 373.81 271.97 372.07 275.68
  Q 368.27 283.76 360.69 287.28
  Q 353.79 290.48 345.48 289.35
  Q 331.51 287.45 325.62 273.03
  A 0.65 0.60 73.1 0 0 324.94 272.63
  Z"
/>
</svg>
